<?xml version="1.0" encoding="UTF-8"?>
<svg version="1.1" xmlns="http://www.w3.org/2000/svg" width="300" height="300">
<path d="M0 0 C2.625 2.37109375 2.625 2.37109375 5 5.4375 C5.63010986 6.24513794 5.63010986 6.24513794 6.27294922 7.0690918 C7.12475583 8.17059943 7.9671636 9.27944223 8.79980469 10.39550781 C9.90600638 11.87434376 11.04910821 13.32538581 12.1953125 14.7734375 C16.05522569 19.85227065 17.47311288 22.44927214 17 29 C15.68310547 32.08618164 15.68310547 32.08618164 13.8671875 35.16015625 C13.22652344 36.28357422 12.58585937 37.40699219 11.92578125 38.56445312 C10.90030337 40.32125476 9.86825621 42.07387049 8.83056641 43.82348633 C7.82570521 45.5299398 6.84608649 47.25117832 5.8671875 48.97265625 C5.27019043 49.98593994 4.67319336 50.99922363 4.05810547 52.04321289 C2.69638114 55.84843749 3.36383538 57.37120325 5 61 C5.52134521 62.18480957 5.52134521 62.18480957 6.05322266 63.39355469 C6.4197998 64.14540039 6.78637695 64.89724609 7.1640625 65.671875 C7.56367188 66.50074219 7.96328125 67.32960938 8.375 68.18359375 C9.21598245 69.91023584 10.05713123 71.63679692 10.8984375 73.36328125 C11.49398437 74.59884766 11.49398437 74.59884766 12.1015625 75.859375 C12.64804443 76.98037598 12.64804443 76.98037598 13.20556641 78.12402344 C14 80 14 80 14 82 C14.9178125 81.6390625 15.835625 81.278125 16.78125 80.90625 C30.08012248 75.87726461 30.08012248 75.87726461 36 77 C38.97888482 78.65424501 41.43371889 80.77187507 44 83 C45.64409032 84.335482 47.29008086 85.66862653 48.9375 87 C50.37909303 88.19052908 51.82064914 89.38110303 53.26171875 90.57226562 C55.2806762 92.23053292 57.31204291 93.87300566 59.34375 95.515625 C60.87506476 96.760337 62.40631477 98.00512866 63.9375 99.25 C64.67154053 99.84039062 65.40558105 100.43078125 66.16186523 101.0390625 C75.39856206 108.57765684 75.39856206 108.57765684 76.56640625 113.28125 C76.55913996 117.40850303 76.34590766 119.48113851 74 123 C70.39702086 125.40198609 67.34794804 126.66949373 63 126 C58.05854667 123.53499261 54.01040389 120.52902722 49.875 116.875 C48.74331818 115.91013059 47.6104718 114.9466257 46.4765625 113.984375 C44.73038379 112.49438103 42.99588792 110.99632558 41.28417969 109.46679688 C35.19470448 103.57454487 35.19470448 103.57454487 27.5703125 100.87109375 C25.13101984 101.63934073 23.19912128 102.69486113 21 104 C18.98503927 104.90896534 16.96402083 105.80460812 14.9375 106.6875 C13.2895626 107.4538248 11.6429552 108.22305109 10 109 C10.97582031 109.37511719 11.95164062 109.75023437 12.95703125 110.13671875 C14.24252952 110.6527947 15.52766725 111.16976937 16.8125 111.6875 C17.45509766 111.93177734 18.09769531 112.17605469 18.75976562 112.42773438 C21.62401497 113.60014732 23.75608178 114.73184467 25.84765625 117.03125 C27.5911638 121.52299826 28.07923455 126.04392761 28.625 130.8125 C28.74689697 131.83335693 28.86879395 132.85421387 28.99438477 133.90600586 C29.34619394 136.93575126 29.67563999 139.96720845 30 143 C30.09619629 143.83853516 30.19239258 144.67707031 30.29150391 145.54101562 C30.53444319 147.71328629 30.74394003 149.88534376 30.9375 152.0625 C31.10572266 153.87427734 31.10572266 153.87427734 31.27734375 155.72265625 C30.93096696 159.81575663 29.5594246 161.83946284 27 165 C24.59486979 166.20256511 22.87146436 166.2703777 20.1875 166.375 C18.90939453 166.44847656 18.90939453 166.44847656 17.60546875 166.5234375 C13.81184526 165.76130025 12.45005804 163.93937382 10 161 C9.17626953 157.81787109 9.17626953 157.81787109 8.8828125 154.2734375 C8.75003906 152.9946875 8.61726563 151.7159375 8.48046875 150.3984375 C8.29677517 148.38027055 8.12394906 146.36185848 7.96240234 144.34179688 C7.76055908 136.72603798 7.76055908 136.72603798 4.30761719 130.43457031 C2.18979464 129.43857403 2.18979464 129.43857403 -1 129 C-0.98952637 129.6705542 -0.97905273 130.3411084 -0.96826172 131.03198242 C-0.92656829 134.08378316 -0.90063147 137.13552384 -0.875 140.1875 C-0.85824219 141.24259766 -0.84148437 142.29769531 -0.82421875 143.38476562 C-0.81777344 144.40634766 -0.81132812 145.42792969 -0.8046875 146.48046875 C-0.79421387 147.41785889 -0.78374023 148.35524902 -0.77294922 149.32104492 C-1.01833287 152.21630812 -1.79478381 154.37062697 -3 157 C-6.88694884 155.53824146 -8.00815228 153.69873837 -9.75 150 C-10.17796875 149.113125 -10.6059375 148.22625 -11.046875 147.3125 C-12 145 -12 145 -12 143 C-12.66 143 -13.32 143 -14 143 C-14.26167969 143.84949219 -14.52335937 144.69898438 -14.79296875 145.57421875 C-16.05676804 149.16111834 -17.57046177 152.43271407 -19.3125 155.8125 C-19.88613281 156.95332031 -20.45976562 158.09414062 -21.05078125 159.26953125 C-23 162 -23 162 -28 163 C-28 155.41 -28 147.82 -28 140 C-29.67449219 140.9384375 -31.34898438 141.876875 -33.07421875 142.84375 C-35.2783408 144.06305156 -37.48278476 145.28177136 -39.6875 146.5 C-40.79029297 147.12003906 -41.89308594 147.74007812 -43.02929688 148.37890625 C-44.09599609 148.96542969 -45.16269531 149.55195313 -46.26171875 150.15625 C-47.24100342 150.70087891 -48.22028809 151.24550781 -49.22924805 151.80664062 C-52.08623385 153.03714081 -53.92949984 153.25485396 -57 153 C-56.65383951 147.89179379 -53.86951055 145.43567429 -50.3125 142.125 C-49.21820981 141.07222408 -48.12574494 140.0175474 -47.03515625 138.9609375 C-46.51066895 138.45530273 -45.98618164 137.94966797 -45.44580078 137.42871094 C-42.76406119 134.7786704 -40.38520237 131.91524734 -38 129 C-40.05712626 126.94287374 -44.09505265 127.31446263 -46.9375 127 C-54.73407821 126.13296089 -54.73407821 126.13296089 -57 125 C-57 123.68 -57 122.36 -57 121 C-54.69 120.01 -52.38 119.02 -50 118 C-51.07507813 117.27876953 -51.07507813 117.27876953 -52.171875 116.54296875 C-55.84877239 113.23680825 -57.88853482 109.61475019 -60.25 105.3125 C-60.69601563 104.54744141 -61.14203125 103.78238281 -61.6015625 102.99414062 C-64.48468311 97.80889189 -66.35510512 93.01743113 -66 87 C-64.99609375 84.5 -64.99609375 84.5 -63 82 C-62.2577417 81.01773438 -62.2577417 81.01773438 -61.50048828 80.015625 C-59.71383306 77.65579573 -57.89233408 75.32647635 -56.0625 73 C-55.44181641 72.2059375 -54.82113281 71.411875 -54.18164062 70.59375 C-52.45893135 68.3922046 -50.73324555 66.19325977 -49 64 C-48.42209717 63.15872559 -47.84419434 62.31745117 -47.2487793 61.45068359 C-44.44946037 58.40003074 -41.42316053 57.0766459 -37.671875 55.5390625 C-36.21654179 54.89657987 -34.76214301 54.25197723 -33.30859375 53.60546875 C-31.04158169 52.61215759 -28.77208355 51.6340798 -26.48291016 50.69287109 C-15.88190537 46.29519519 -9.83195287 42.03698739 -5.06347656 31.36865234 C-3.82836263 27.56851469 -3.82836263 27.56851469 -5 24 C-6.47517412 22.04797376 -8.00238657 20.13483188 -9.5625 18.25 C-14.65152819 11.7818501 -14.65152819 11.7818501 -14.8125 7.5 C-13.92157402 3.66216499 -13.17870806 2.27050576 -10 0 C-6.14106932 -1.28631023 -3.94205405 -0.98126561 0 0 Z M-39 81 C-41.68830908 83.7810094 -44.0191005 86.67472272 -46 90 C-45.71579331 93.41048024 -44.47977878 95.2141047 -42.7265625 98.0859375 C-39.54084843 103.48139544 -38.3487326 106.7044151 -39 113 C-39.33 113.99 -39.66 114.98 -40 116 C-34.86496656 115.35812082 -30.0056546 114.31727753 -25 113 C-26 116 -26 116 -28.28515625 117.38671875 C-29.20167969 117.81597656 -30.11820313 118.24523437 -31.0625 118.6875 C-31.98160156 119.12449219 -32.90070313 119.56148437 -33.84765625 120.01171875 C-34.91306641 120.50091797 -34.91306641 120.50091797 -36 121 C-33.08235 122.9451 -31.37462715 123.45276317 -28 124 C-29.83025211 128.66714289 -31.6497537 132.18765077 -35 136 C-34.154375 135.690625 -33.30875 135.38125 -32.4375 135.0625 C-28.9502146 133.98461179 -25.61822465 133.43418696 -22 133 C-21.67 136.3 -21.34 139.6 -21 143 C-18.87961365 140.38485683 -16.86908256 137.80362384 -15 135 C-11.17902761 135.53069061 -8.93828597 136.49701566 -6 139 C-5.505 137.14375 -5.505 137.14375 -5 135.25 C-4.7215625 134.20585937 -4.7215625 134.20585937 -4.4375 133.140625 C-3.86650651 130.71098139 -3.86650651 130.71098139 -4 127 C-5.17369141 126.60167969 -5.17369141 126.60167969 -6.37109375 126.1953125 C-7.38300781 125.84210938 -8.39492187 125.48890625 -9.4375 125.125 C-10.44683594 124.77695313 -11.45617187 124.42890625 -12.49609375 124.0703125 C-15 123 -15 123 -16 121 C-17.32 121 -18.64 121 -20 121 C-20.26425781 120.14929932 -20.52851563 119.29859863 -20.80078125 118.42211914 C-22.04177274 114.88079631 -23.5390594 111.61629661 -25.1875 108.24609375 C-25.49067139 107.6227565 -25.79384277 106.99941925 -26.10620117 106.35719299 C-27.06732136 104.38224254 -28.03331832 102.40973342 -29 100.4375 C-29.96598953 98.46137107 -30.93087877 96.48472184 -31.89379883 94.50709534 C-32.7667088 92.7150985 -33.64302634 90.92476271 -34.51953125 89.13452148 C-35.78664961 86.45171598 -36.9372061 83.76877252 -38 81 C-38.33 81 -38.66 81 -39 81 Z M-1 113 C-1.66 113.66 -2.32 114.32 -3 115 C-1.35 114.67 0.3 114.34 2 114 C1.01 113.67 0.02 113.34 -1 113 Z M-12 118 C-12.66 118.66 -13.32 119.32 -14 120 C-12.35 119.67 -10.7 119.34 -9 119 C-9.99 118.67 -10.98 118.34 -12 118 Z " fill="#0F0F0F" transform="translate(157,56)"/>
<path d="M0 0 C1.35472412 0.46987083 1.35472412 0.46987083 2.73681641 0.94923401 C5.62286311 1.95752457 8.49970827 2.98880897 11.375 4.02734375 C12.31279297 4.36449402 13.25058594 4.70164429 14.21679688 5.04901123 C20.95211809 7.47845066 27.66497525 9.96656176 34.375 12.46484375 C36.31760039 13.18453621 38.26030861 13.90393769 40.203125 14.62304688 C44.97917809 16.39260723 49.7504464 18.17466563 54.52001953 19.96160889 C57.43624651 21.05020644 60.35660335 22.12719159 63.27734375 23.20361328 C65.1642021 23.90620072 67.05092616 24.60914894 68.9375 25.3125 C69.80004395 25.62746933 70.66258789 25.94243866 71.55126953 26.26695251 C79.2786968 29.16805493 85.72527019 32.48249456 89.45849609 40.29467773 C90.50460842 43.41378677 90.69467484 46.02514724 90.7890625 49.3125 C90.82789551 50.5509668 90.86672852 51.78943359 90.90673828 53.06542969 C90.93845384 54.40688633 90.96952447 55.74835836 91 57.08984375 C91.03734558 58.48470729 91.07494695 59.87956401 91.11279297 61.27441406 C92.74223869 124.72453914 92.74223869 124.72453914 87.375 144.02734375 C87.09785156 145.04054687 86.82070313 146.05375 86.53515625 147.09765625 C76.05692231 181.54541246 49.43906057 199.38385368 19.56298828 216.22021484 C16.57942382 217.91146497 13.61237979 219.62734475 10.65234375 221.359375 C9.78641602 221.86597656 8.92048828 222.37257812 8.02832031 222.89453125 C6.43416411 223.82892776 4.84099484 224.765011 3.24902344 225.703125 C-4.79138638 230.39183779 -11.16285817 232.46009709 -20.625 231.02734375 C-26.30355438 229.12617959 -31.46720365 226.0207077 -36.625 223.02734375 C-37.30046875 222.64223633 -37.9759375 222.25712891 -38.671875 221.86035156 C-42.9197259 219.4344558 -47.12202194 216.93896505 -51.31103516 214.41308594 C-53.79489145 212.92560247 -56.29265562 211.4635435 -58.79296875 210.00390625 C-67.55118653 204.86673449 -76.00986094 199.80095476 -83.625 193.02734375 C-84.4603125 192.32222656 -85.295625 191.61710938 -86.15625 190.890625 C-105.16360128 174.48819687 -116.86946906 150.7689084 -118.80376244 125.7116127 C-119.08287065 119.86093604 -119.07136327 114.00834132 -119.05859375 108.15234375 C-119.06316849 106.28865369 -119.06847785 104.42496531 -119.07447815 102.5612793 C-119.08333528 98.68873151 -119.08106641 94.81639086 -119.07104492 90.94384766 C-119.05948502 85.99672258 -119.07991109 81.05030392 -119.10896206 76.10327148 C-119.12733889 72.26840743 -119.12702999 68.43371296 -119.12132454 64.59881592 C-119.12117193 62.77446492 -119.12716587 60.95010198 -119.13961601 59.12579346 C-119.15457651 56.5782037 -119.14381776 54.03192505 -119.12670898 51.484375 C-119.13637695 50.74346115 -119.14604492 50.0025473 -119.15600586 49.23918152 C-119.06759889 42.91864905 -117.13587566 37.75137935 -112.81863403 33.06762695 C-107.82764404 29.5538962 -102.86629245 27.23351712 -97.1171875 25.21484375 C-96.20948608 24.88355469 -95.30178467 24.55226563 -94.36657715 24.2109375 C-91.41547826 23.13703653 -88.45797737 22.08213285 -85.5 21.02734375 C-83.44954785 20.28519195 -81.399585 19.54168701 -79.35009766 18.796875 C-75.16649922 17.2779334 -70.98060291 15.76558999 -66.79296875 14.2578125 C-60.94460357 12.14822036 -55.11045508 10.00174399 -49.28125 7.83984375 C-48.40107208 7.51363037 -47.52089417 7.18741699 -46.61404419 6.85131836 C-43.25660197 5.60658733 -39.89942015 4.36115561 -36.54241943 3.11523438 C-34.26602579 2.2713451 -31.98862593 1.43023091 -29.7109375 0.58984375 C-28.7141095 0.219198 -28.7141095 0.219198 -27.69714355 -0.15893555 C-17.63451307 -3.8643085 -10.07632445 -3.62623835 0 0 Z M-21.62011719 7.67285156 C-22.61870255 8.03492706 -23.6172879 8.39700256 -24.64613342 8.77005005 C-25.72712814 9.16948822 -26.80812286 9.56892639 -27.921875 9.98046875 C-29.05181381 10.39239471 -30.18175262 10.80432068 -31.34593201 11.22872925 C-34.39538655 12.34209978 -37.44265004 13.46121555 -40.48888779 14.58335114 C-42.99921561 15.5070231 -45.51119362 16.4261578 -48.02320766 17.34523201 C-55.89550294 20.22563848 -63.76161824 23.12269586 -71.625 26.02734375 C-72.59814148 26.38679077 -73.57128296 26.74623779 -74.57391357 27.11657715 C-79.99037533 29.11890339 -85.40347291 31.1300216 -90.8125 33.15234375 C-91.46367798 33.39537231 -92.11485596 33.63840088 -92.7857666 33.88879395 C-94.58085371 34.55985994 -96.37445847 35.23488731 -98.16796875 35.91015625 C-99.13758545 36.27512207 -100.10720215 36.64008789 -101.10620117 37.01611328 C-101.93740479 37.34981934 -102.7686084 37.68352539 -103.625 38.02734375 C-104.7219519 38.46409424 -104.7219519 38.46409424 -105.84106445 38.90966797 C-108.187679 40.37987481 -108.63396248 41.43415482 -109.625 44.02734375 C-109.92881077 47.31095904 -109.92881077 47.31095904 -109.88378906 51.02050781 C-109.8872937 51.71715546 -109.89079834 52.4138031 -109.89440918 53.13156128 C-109.90320959 55.4354653 -109.89737573 57.73906155 -109.890625 60.04296875 C-109.89197396 61.65802061 -109.89391641 63.27307208 -109.89642334 64.88812256 C-109.89937383 68.28092294 -109.89508613 71.67361811 -109.88574219 75.06640625 C-109.87445709 79.3694531 -109.88083718 83.6722474 -109.89288712 87.97528458 C-109.90020201 91.31807263 -109.89777242 94.66080342 -109.89263153 98.00359344 C-109.89131571 99.58687115 -109.89286844 101.17015439 -109.89759064 102.7534256 C-109.96589564 132.14079448 -103.44010377 157.89455479 -82.984375 179.86328125 C-68.43370154 194.04815566 -49.25755027 203.33149202 -31.71923828 213.23291016 C-29.59208014 214.46650747 -27.49220606 215.74799314 -25.41748047 217.06787109 C-19.65167504 220.77647222 -19.65167504 220.77647222 -13.1171875 222.37890625 C-7.66226771 220.26771805 -2.76103412 217.40173588 2.25 214.40234375 C3.3831665 213.73444824 4.51633301 213.06655273 5.68383789 212.37841797 C8.0600655 210.97712444 10.4316776 209.56841663 12.80029297 208.15429688 C16.27169384 206.08385632 19.76166428 204.04681311 23.25390625 202.01171875 C25.44069138 200.72625884 27.62691099 199.43983629 29.8125 198.15234375 C30.81071777 197.57145996 31.80893555 196.99057617 32.83740234 196.39208984 C55.09947543 183.13649588 71.66336222 164.09489335 78.1875 138.77734375 C81.75729088 119.90909626 81.75098958 100.86615172 81.74560547 81.74047852 C81.74539929 77.82671374 81.77308654 73.91365094 81.80714989 70.00005436 C81.82936577 66.95711466 81.83344523 63.91434848 81.83238602 60.87133598 C81.83473509 59.42686907 81.84351941 57.98239687 81.85905075 56.53801155 C81.87866919 54.53202867 81.87036084 52.52583161 81.86083984 50.51977539 C81.86368988 49.38318985 81.86653992 48.24660431 81.86947632 47.07557678 C81.25549844 43.2906682 80.09395072 41.69859229 77.375 39.02734375 C75.13194999 37.70925722 75.13194999 37.70925722 72.61108398 36.89331055 C71.66975113 36.55072708 70.72841827 36.20814362 69.75856018 35.85517883 C68.2364518 35.32745125 68.2364518 35.32745125 66.68359375 34.7890625 C65.6211998 34.40618576 64.55880585 34.02330902 63.46421814 33.62882996 C61.22538737 32.82217177 58.98438848 32.02150876 56.74139404 31.22650146 C52.47989299 29.70849383 48.23843601 28.13915929 43.99697876 26.56619263 C39.8556933 25.03097448 35.70938244 23.50956972 31.56323242 21.98754883 C28.41338373 20.83098875 25.26428978 19.67238992 22.11523438 18.51367188 C17.12049377 16.67730207 12.12284813 14.84908385 7.12237549 13.02838135 C5.32789526 12.37454201 3.53404235 11.71897767 1.74090576 11.0614624 C-0.630069 10.19333258 -3.00389786 9.33358422 -5.37890625 8.4765625 C-6.40624123 8.09803886 -6.40624123 8.09803886 -7.45433044 7.71186829 C-12.76997908 5.81152379 -16.35774509 5.74638344 -21.62011719 7.67285156 Z " fill="#F4A022" transform="translate(170.625,27.97265625)"/>
<path d="M0 0 C0.33 0 0.66 0 1 0 C1.125 7.75 1.125 7.75 0 10 C0.67546875 9.855625 1.3509375 9.71125 2.046875 9.5625 C2.93890625 9.376875 3.8309375 9.19125 4.75 9 C5.63171875 8.814375 6.5134375 8.62875 7.421875 8.4375 C10 8 10 8 14 8 C13.78515625 9.859375 13.78515625 9.859375 13 12 C10.93359375 13.265625 10.93359375 13.265625 8.4375 14.25 C7.61121094 14.58515625 6.78492187 14.9203125 5.93359375 15.265625 C5.29550781 15.50796875 4.65742187 15.7503125 4 16 C6.31 16.99 8.62 17.98 11 19 C10.55530671 24.03985731 8.28656638 26.37634988 5 30 C6.051875 29.505 7.10375 29.01 8.1875 28.5 C11.25215284 27.18213711 13.62451933 26.60288463 17 27 C19.04698414 29.04698414 18.70045693 33.30411241 19 36 C20.65 33.69 22.3 31.38 24 29 C28.08072342 29.55144911 28.91330796 29.91330796 32 33 C33.485 27.555 33.485 27.555 35 22 C33.576875 21.71125 32.15375 21.4225 30.6875 21.125 C27.41941308 20.4619099 25.85478326 19.90318884 23 18 C23 17.34 23 16.68 23 16 C26.84074406 14.11705382 30.69935956 12.27400162 34.5625 10.4375 C36.19155273 9.63795898 36.19155273 9.63795898 37.85351562 8.82226562 C45.08173504 5.4168735 49.04242954 4.43150313 56.765625 6.875 C57.58546875 7.24625 58.4053125 7.6175 59.25 8 C60.49523437 8.5259375 60.49523437 8.5259375 61.765625 9.0625 C68.23091706 14.66876724 67.89748586 25.71622453 68.6875 33.625 C68.81705078 34.81351563 68.94660156 36.00203125 69.08007812 37.2265625 C70.71366649 52.71540032 70.71366649 52.71540032 68.125 57.375 C65.90150053 60.12167582 65.21128307 60.84992953 61.79296875 61.2734375 C60.93316406 61.30695313 60.07335937 61.34046875 59.1875 61.375 C58.33542969 61.42398438 57.48335938 61.47296875 56.60546875 61.5234375 C52.81184526 60.76130025 51.45005804 58.93937382 49 56 C48.17626953 52.81787109 48.17626953 52.81787109 47.8828125 49.2734375 C47.75003906 47.9946875 47.61726563 46.7159375 47.48046875 45.3984375 C47.29677517 43.38027055 47.12394906 41.36185848 46.96240234 39.34179688 C46.76055908 31.72603798 46.76055908 31.72603798 43.30761719 25.43457031 C41.18979464 24.43857403 41.18979464 24.43857403 38 24 C38.01571045 25.0058313 38.01571045 25.0058313 38.03173828 26.03198242 C38.07343171 29.08378316 38.09936853 32.13552384 38.125 35.1875 C38.14175781 36.24259766 38.15851563 37.29769531 38.17578125 38.38476562 C38.18544922 39.91713867 38.18544922 39.91713867 38.1953125 41.48046875 C38.21102295 42.88655396 38.21102295 42.88655396 38.22705078 44.32104492 C37.98166713 47.21630812 37.20521619 49.37062697 36 52 C32.11305116 50.53824146 30.99184772 48.69873837 29.25 45 C28.82203125 44.113125 28.3940625 43.22625 27.953125 42.3125 C27 40 27 40 27 38 C26.34 38 25.68 38 25 38 C24.60748047 39.27423828 24.60748047 39.27423828 24.20703125 40.57421875 C22.94323196 44.16111834 21.42953823 47.43271407 19.6875 50.8125 C19.11386719 51.95332031 18.54023438 53.09414062 17.94921875 54.26953125 C16 57 16 57 11 58 C11 50.41 11 42.82 11 35 C8.48826172 36.40765625 8.48826172 36.40765625 5.92578125 37.84375 C3.7216592 39.06305156 1.51721524 40.28177136 -0.6875 41.5 C-2.34168945 42.43005859 -2.34168945 42.43005859 -4.02929688 43.37890625 C-5.6293457 44.25869141 -5.6293457 44.25869141 -7.26171875 45.15625 C-8.24100342 45.70087891 -9.22028809 46.24550781 -10.22924805 46.80664062 C-13.08623385 48.03714081 -14.92949984 48.25485396 -18 48 C-17.65383951 42.89179379 -14.86951055 40.43567429 -11.3125 37.125 C-10.21820981 36.07222408 -9.12574494 35.0175474 -8.03515625 33.9609375 C-7.51066895 33.45530273 -6.98618164 32.94966797 -6.44580078 32.42871094 C-3.76406119 29.7786704 -1.38520237 26.91524734 1 24 C-1.05712626 21.94287374 -5.09505265 22.31446263 -7.9375 22 C-15.73407821 21.13296089 -15.73407821 21.13296089 -18 20 C-18 18.68 -18 17.36 -18 16 C-17.19175781 15.76925781 -16.38351563 15.53851563 -15.55078125 15.30078125 C-7.13445811 12.90928194 -7.13445811 12.90928194 -1 7 C-0.11472891 3.31558496 -0.11472891 3.31558496 0 0 Z " fill="#141414" transform="translate(118,161)"/>
<path d="M0 0 C3.95119024 3.2828297 6.59649287 7.25672455 7.5703125 12.3046875 C8.11178153 19.34378483 6.74345473 24.7312296 2.1953125 30.1171875 C-3.69306201 35.02416625 -7.66200529 35.84516943 -15.26171875 35.65625 C-20.8798761 35.03278001 -23.88437073 32.97530022 -27.7421875 28.8046875 C-31.89284643 22.65556315 -32.04231949 17.65627137 -31.4296875 10.3046875 C-29.70505517 4.82644363 -26.11806763 1.4464858 -21.4296875 -1.6953125 C-14.20917939 -4.7707141 -6.63596555 -4.22849898 0 0 Z " fill="#101010" transform="translate(132.4296875,68.6953125)"/>
<path d="M0 0 C0.33 0 0.66 0 1 0 C1.125 7.75 1.125 7.75 0 10 C0.67546875 9.855625 1.3509375 9.71125 2.046875 9.5625 C2.93890625 9.376875 3.8309375 9.19125 4.75 9 C5.63171875 8.814375 6.5134375 8.62875 7.421875 8.4375 C10 8 10 8 14 8 C13.78515625 9.859375 13.78515625 9.859375 13 12 C10.93359375 13.265625 10.93359375 13.265625 8.4375 14.25 C7.61121094 14.58515625 6.78492187 14.9203125 5.93359375 15.265625 C5.29550781 15.50796875 4.65742187 15.7503125 4 16 C6.31 16.99 8.62 17.98 11 19 C10.55530671 24.03985731 8.28656638 26.37634988 5 30 C6.051875 29.505 7.10375 29.01 8.1875 28.5 C11.25215284 27.18213711 13.62451933 26.60288463 17 27 C19.04698414 29.04698414 18.70045693 33.30411241 19 36 C20.65 33.69 22.3 31.38 24 29 C28.08072342 29.55144911 28.91330796 29.91330796 32 33 C33.485 27.555 33.485 27.555 35 22 C34.01 21.67 33.02 21.34 32 21 C34.3431213 21.25561323 36.67843403 21.59270772 39 22 C39.495 22.99 39.495 22.99 40 24 C39.34 24 38.68 24 38 24 C38.01571045 25.0058313 38.01571045 25.0058313 38.03173828 26.03198242 C38.07343171 29.08378316 38.09936853 32.13552384 38.125 35.1875 C38.14175781 36.24259766 38.15851563 37.29769531 38.17578125 38.38476562 C38.18544922 39.91713867 38.18544922 39.91713867 38.1953125 41.48046875 C38.21102295 42.88655396 38.21102295 42.88655396 38.22705078 44.32104492 C37.98166713 47.21630812 37.20521619 49.37062697 36 52 C32.11305116 50.53824146 30.99184772 48.69873837 29.25 45 C28.82203125 44.113125 28.3940625 43.22625 27.953125 42.3125 C27 40 27 40 27 38 C26.34 38 25.68 38 25 38 C24.60748047 39.27423828 24.60748047 39.27423828 24.20703125 40.57421875 C22.94323196 44.16111834 21.42953823 47.43271407 19.6875 50.8125 C19.11386719 51.95332031 18.54023438 53.09414062 17.94921875 54.26953125 C16 57 16 57 11 58 C11 50.41 11 42.82 11 35 C8.48826172 36.40765625 8.48826172 36.40765625 5.92578125 37.84375 C3.7216592 39.06305156 1.51721524 40.28177136 -0.6875 41.5 C-2.34168945 42.43005859 -2.34168945 42.43005859 -4.02929688 43.37890625 C-5.6293457 44.25869141 -5.6293457 44.25869141 -7.26171875 45.15625 C-8.24100342 45.70087891 -9.22028809 46.24550781 -10.22924805 46.80664062 C-13.08623385 48.03714081 -14.92949984 48.25485396 -18 48 C-17.65383951 42.89179379 -14.86951055 40.43567429 -11.3125 37.125 C-10.21820981 36.07222408 -9.12574494 35.0175474 -8.03515625 33.9609375 C-7.51066895 33.45530273 -6.98618164 32.94966797 -6.44580078 32.42871094 C-3.76406119 29.7786704 -1.38520237 26.91524734 1 24 C-1.05712626 21.94287374 -5.09505265 22.31446263 -7.9375 22 C-15.73407821 21.13296089 -15.73407821 21.13296089 -18 20 C-18 18.68 -18 17.36 -18 16 C-17.19175781 15.76925781 -16.38351563 15.53851563 -15.55078125 15.30078125 C-7.13445811 12.90928194 -7.13445811 12.90928194 -1 7 C-0.11472891 3.31558496 -0.11472891 3.31558496 0 0 Z " fill="#212121" transform="translate(118,161)"/>
<path d="M0 0 C0.33 0 0.66 0 1 0 C1.125 7.75 1.125 7.75 0 10 C0.67546875 9.855625 1.3509375 9.71125 2.046875 9.5625 C2.93890625 9.376875 3.8309375 9.19125 4.75 9 C5.63171875 8.814375 6.5134375 8.62875 7.421875 8.4375 C10 8 10 8 14 8 C13.78515625 9.859375 13.78515625 9.859375 13 12 C10.93359375 13.265625 10.93359375 13.265625 8.4375 14.25 C7.61121094 14.58515625 6.78492187 14.9203125 5.93359375 15.265625 C5.29550781 15.50796875 4.65742187 15.7503125 4 16 C6.31 16.99 8.62 17.98 11 19 C10.55530671 24.03985731 8.28656638 26.37634988 5 30 C5 28.33333333 5 26.66666667 5 25 C2.4361832 27.39442739 -0.12581244 29.79079493 -2.6875 32.1875 C-3.40873047 32.86103516 -4.12996094 33.53457031 -4.87304688 34.22851562 C-11.98701133 40.63136323 -11.98701133 40.63136323 -18 48 C-17.65383951 42.89179379 -14.86951055 40.43567429 -11.3125 37.125 C-10.21820981 36.07222408 -9.12574494 35.0175474 -8.03515625 33.9609375 C-7.51066895 33.45530273 -6.98618164 32.94966797 -6.44580078 32.42871094 C-3.76406119 29.7786704 -1.38520237 26.91524734 1 24 C-1.05712626 21.94287374 -5.09505265 22.31446263 -7.9375 22 C-15.73407821 21.13296089 -15.73407821 21.13296089 -18 20 C-18 18.68 -18 17.36 -18 16 C-17.19175781 15.76925781 -16.38351563 15.53851563 -15.55078125 15.30078125 C-7.13445811 12.90928194 -7.13445811 12.90928194 -1 7 C-0.11472891 3.31558496 -0.11472891 3.31558496 0 0 Z " fill="#222222" transform="translate(118,161)"/>
<path d="M0 0 C2.3431213 0.25561323 4.67843403 0.59270772 7 1 C7.33 1.66 7.66 2.32 8 3 C7.34 3 6.68 3 6 3 C6.01047363 3.6705542 6.02094727 4.3411084 6.03173828 5.03198242 C6.07343171 8.08378316 6.09936853 11.13552384 6.125 14.1875 C6.14175781 15.24259766 6.15851563 16.29769531 6.17578125 17.38476562 C6.18222656 18.40634766 6.18867188 19.42792969 6.1953125 20.48046875 C6.20578613 21.41785889 6.21625977 22.35524902 6.22705078 23.32104492 C5.98166713 26.21630812 5.20521619 28.37062697 4 31 C0.11305116 29.53824146 -1.00815228 27.69873837 -2.75 24 C-3.17796875 23.113125 -3.6059375 22.22625 -4.046875 21.3125 C-5 19 -5 19 -5 17 C-5.66 17 -6.32 17 -7 17 C-7.268125 17.9075 -7.53625 18.815 -7.8125 19.75 C-8.89576294 22.71471963 -9.98359457 24.6169754 -12 27 C-11.67 24.36 -11.34 21.72 -11 19 C-12.32 19.33 -13.64 19.66 -15 20 C-15 17.69 -15 15.38 -15 13 C-14.34 13.66 -13.68 14.32 -13 15 C-11.35 12.69 -9.7 10.38 -8 8 C-3.91927658 8.55144911 -3.08669204 8.91330796 0 12 C0.99 8.37 1.98 4.74 3 1 C2.01 0.67 1.02 0.34 0 0 Z " fill="#232323" transform="translate(150,182)"/>
<path d="M0 0 C0.33 0.66 0.66 1.32 1 2 C-0.80831392 5.61662784 -3.05278838 8.25604436 -6 11 C-4.35 11 -2.7 11 -1 11 C-1 11.66 -1 12.32 -1 13 C-1.66 13 -2.32 13 -3 13 C-3 13.66 -3 14.32 -3 15 C-3.75925781 15.39832031 -4.51851562 15.79664063 -5.30078125 16.20703125 C-6.29464844 16.73683594 -7.28851563 17.26664063 -8.3125 17.8125 C-9.29863281 18.33457031 -10.28476563 18.85664063 -11.30078125 19.39453125 C-13.9653962 20.82944084 -13.9653962 20.82944084 -15.65625 22.65625 C-17.75878752 24.75878752 -20.13852189 24.68205799 -23 25 C-22.41865127 21.73140998 -21.47844849 20.1087842 -19.12109375 17.79296875 C-18.53279785 17.20918457 -17.94450195 16.62540039 -17.33837891 16.02392578 C-16.71108887 15.41790527 -16.08379883 14.81188477 -15.4375 14.1875 C-14.80505371 13.56601074 -14.17260742 12.94452148 -13.52099609 12.30419922 C-9.1547611 8.04077805 -4.7066873 3.88813299 0 0 Z " fill="#070707" transform="translate(124,184)"/>
<path d="M0 0 C1.65 0.33 3.3 0.66 5 1 C4.55530671 6.03985731 2.28656638 8.37634988 -1 12 C-1 9 -1 9 -0.5 7.125 C0.07146859 4.69625848 0.06906967 2.4865081 0 0 Z M-10 3 C-3.42596154 2.62788462 -3.42596154 2.62788462 -1.26953125 4.51171875 C-0.64111328 5.24841797 -0.64111328 5.24841797 0 6 C-0.48879639 6.45850342 -0.97759277 6.91700684 -1.48120117 7.3894043 C-3.71742285 9.48793085 -5.95246974 11.5877046 -8.1875 13.6875 C-8.95642578 14.40873047 -9.72535156 15.12996094 -10.51757812 15.87304688 C-17.81829025 22.44672779 -17.81829025 22.44672779 -24 30 C-23.65383951 24.89179379 -20.86951055 22.43567429 -17.3125 19.125 C-16.21820981 18.07222408 -15.12574494 17.0175474 -14.03515625 15.9609375 C-13.24842529 15.20248535 -13.24842529 15.20248535 -12.44580078 14.42871094 C-9.76406119 11.7786704 -7.38520237 8.91524734 -5 6 C-6.65 5.34 -8.3 4.68 -10 4 C-10 3.67 -10 3.34 -10 3 Z " fill="#5F5F5F" transform="translate(124,179)"/>
<path d="M0 0 C1 1 1 1 1.0625 3.5625 C1.041875 4.366875 1.02125 5.17125 1 6 C0.34 6 -0.32 6 -1 6 C-1 4.35 -1 2.7 -1 1 C-3.31 2.32 -5.62 3.64 -8 5 C-6.68 5.33 -5.36 5.66 -4 6 C-4.33 7.32 -4.66 8.64 -5 10 C-5.33 9.34 -5.66 8.68 -6 8 C-6.5347998 8.3081665 -7.06959961 8.61633301 -7.62060547 8.93383789 C-10.03406742 10.31839186 -12.45435072 11.69055386 -14.875 13.0625 C-15.71675781 13.54783203 -16.55851562 14.03316406 -17.42578125 14.53320312 C-18.23144531 14.98759766 -19.03710938 15.44199219 -19.8671875 15.91015625 C-20.61081543 16.33433838 -21.35444336 16.75852051 -22.12060547 17.19555664 C-22.74080566 17.46102295 -23.36100586 17.72648926 -24 18 C-24.66 17.67 -25.32 17.34 -26 17 C-24.75443908 16.18071114 -23.50333365 15.36984814 -22.25 14.5625 C-21.20585938 13.88380859 -21.20585938 13.88380859 -20.140625 13.19140625 C-18.07042986 12.0391991 -16.31303676 11.45323018 -14 11 C-14 10.34 -14 9.68 -14 9 C-13.34 9 -12.68 9 -12 9 C-12 8.34 -12 7.68 -12 7 C-13.98 7.33 -15.96 7.66 -18 8 C-16.875 5.5625 -16.875 5.5625 -15 3 C-12.0625 2.3125 -12.0625 2.3125 -9 2 C-8.319375 1.649375 -7.63875 1.29875 -6.9375 0.9375 C-4.49746961 -0.24315986 -2.67768044 -0.21710923 0 0 Z " fill="#656565" transform="translate(135,188)"/>
<path d="M0 0 C0.33 0 0.66 0 1 0 C1.125 7.75 1.125 7.75 0 10 C0.67546875 9.855625 1.3509375 9.71125 2.046875 9.5625 C2.93890625 9.376875 3.8309375 9.19125 4.75 9 C5.63171875 8.814375 6.5134375 8.62875 7.421875 8.4375 C10 8 10 8 14 8 C13.80078125 9.82421875 13.80078125 9.82421875 13 12 C10.85546875 13.51953125 10.85546875 13.51953125 8.1875 14.8125 C7.31480469 15.25207031 6.44210938 15.69164062 5.54296875 16.14453125 C2.80961224 17.06404749 1.65212405 17.0076835 -1 16 C0.32 15.67 1.64 15.34 3 15 C3 14.34 3 13.68 3 13 C2.33613281 13.144375 1.67226562 13.28875 0.98828125 13.4375 C0.10527344 13.623125 -0.77773437 13.80875 -1.6875 14 C-2.99267578 14.2784375 -2.99267578 14.2784375 -4.32421875 14.5625 C-6.93712964 14.98972047 -9.35813038 15.07616201 -12 15 C-11.46375 14.7525 -10.9275 14.505 -10.375 14.25 C-9.199375 13.63125 -9.199375 13.63125 -8 13 C-6.96875 12.484375 -5.9375 11.96875 -4.875 11.4375 C-0.95535071 8.11431908 -0.61320252 4.94791001 0 0 Z " fill="#747474" transform="translate(118,161)"/>
<path d="M0 0 C0.66 0.66 1.32 1.32 2 2 C2.66 1.67 3.32 1.34 4 1 C4.33 1.66 4.66 2.32 5 3 C5.99 3 6.98 3 8 3 C8 2.34 8 1.68 8 1 C8.66 1 9.32 1 10 1 C10.47050781 1.98742187 10.94101563 2.97484375 11.42578125 3.9921875 C12.05425994 5.286666 12.68318981 6.58092553 13.3125 7.875 C13.62123047 8.52597656 13.92996094 9.17695313 14.24804688 9.84765625 C15.88807385 13.19676398 16.83508818 14.89005879 20 17 C18.68 17 17.36 17 16 17 C14.99491199 15.21118264 13.99607264 13.41885304 13 11.625 C12.1646875 10.12839844 12.1646875 10.12839844 11.3125 8.6015625 C10 6 10 6 10 4 C9.34 4 8.68 4 8 4 C7.731875 4.9075 7.46375 5.815 7.1875 6.75 C6.10423706 9.71471963 5.01640543 11.6169754 3 14 C3.33 11.36 3.66 8.72 4 6 C2.68 6.33 1.36 6.66 0 7 C0 4.69 0 2.38 0 0 Z " fill="#6F6F6F" transform="translate(135,195)"/>
<path d="M0 0 C-1.11117187 0.40089844 -2.22234375 0.80179688 -3.3671875 1.21484375 C-12.95964335 4.82576596 -19.91762607 8.41803952 -27 16 C-27.99778025 17.00221483 -28.99685042 18.00315953 -30 19 C-29.57931046 14.23218516 -27.5474998 11.082655 -24 8 C-17.9147796 4.20633107 -7.07090391 -2.35696797 0 0 Z " fill="#F8BF6A" transform="translate(83,52)"/>
<path d="M0 0 C0.33 0.66 0.66 1.32 1 2 C-0.4375 4.625 -0.4375 4.625 -2 7 C-2.99 6.67 -3.98 6.34 -5 6 C-3.35 4.02 -1.7 2.04 0 0 Z M-8 7 C-7.34 7.33 -6.68 7.66 -6 8 C-10.62 12.62 -15.24 17.24 -20 22 C-18.35 22 -16.7 22 -15 22 C-18.06117568 24.62386487 -18.73173127 25 -23 25 C-22.41889329 21.57245533 -21.31446376 19.95461339 -18.83984375 17.546875 C-18.21142578 16.928125 -17.58300781 16.309375 -16.93554688 15.671875 C-16.27619141 15.03765625 -15.61683594 14.4034375 -14.9375 13.75 C-14.27427734 13.1003125 -13.61105469 12.450625 -12.92773438 11.78125 C-11.29170683 10.1805324 -9.64909088 8.58723807 -8 7 Z " fill="#181818" transform="translate(124,184)"/>
<path d="M0 0 C4.95807282 0.49580728 8.7171987 1.41039921 13 4 C15.39112209 7.58668313 15.23381027 9.16396569 15.1953125 13.41796875 C15.18564453 15.29838867 15.18564453 15.29838867 15.17578125 17.21679688 C15.15902344 18.52712891 15.14226562 19.83746094 15.125 21.1875 C15.11496639 22.52277987 15.1058412 23.85806689 15.09765625 25.19335938 C15.07405292 28.46242015 15.04112594 31.73112028 15 35 C14.67 35 14.34 35 14 35 C13.99589111 34.23856689 13.99178223 33.47713379 13.98754883 32.69262695 C13.9545886 29.23180334 13.88393946 25.77273429 13.8125 22.3125 C13.80669922 21.11431641 13.80089844 19.91613281 13.79492188 18.68164062 C13.72140232 11.78955961 13.72140232 11.78955961 10.71875 5.78125 C8.35778965 4.23441391 6.36276953 3.04902748 3.6875 2.1875 C2.470625 1.795625 1.25375 1.40375 0 1 C0 0.67 0 0.34 0 0 Z " fill="#F7BE67" transform="translate(238,63)"/>
<path d="M0 0 C-0.845625 0.515625 -1.69125 1.03125 -2.5625 1.5625 C-7.27091384 4.70144256 -12.18143741 8.54431223 -14 14 C-14.66 14 -15.32 14 -16 14 C-14.87483697 7.10837647 -11.52399446 4.07394592 -6 0 C-3.50907189 -1.24546405 -2.58919267 -0.7767578 0 0 Z " fill="#616161" transform="translate(117,67)"/>
<path d="M0 0 C6.42934041 0.14027652 10.4546248 4.67564356 14.875 8.875 C15.37 9.41125 15.865 9.9475 16.375 10.5 C13.03599798 9.9230666 11.6084664 8.94276732 9.3125 6.5 C4.89349875 2.46693772 0.14039918 2.52085135 -5.625 2.5 C-3.625 0.5 -3.625 0.5 0 0 Z " fill="#747474" transform="translate(188.625,132.5)"/>
<path d="M0 0 C2.3431213 0.25561323 4.67843403 0.59270772 7 1 C7.33 1.66 7.66 2.32 8 3 C7.34 3 6.68 3 6 3 C6 6.96 6 10.92 6 15 C5.67 15 5.34 15 5 15 C5 12.36 5 9.72 5 7 C4.34 7 3.68 7 3 7 C2.67 7.99 2.34 8.98 2 10 C2.33 7.03 2.66 4.06 3 1 C2.01 0.67 1.02 0.34 0 0 Z " fill="#6A6A6A" transform="translate(150,182)"/>
<path d="M0 0 C4.68270945 1.64527629 4.68270945 1.64527629 6.390625 3.5546875 C8.4906038 5.4405908 9.65321845 5.37353821 12.4375 5.3125 C13.19933594 5.30863281 13.96117187 5.30476562 14.74609375 5.30078125 C17.19529127 4.9739386 18.86700917 4.21954601 21 3 C20 6 20 6 17.9375 7.25 C14.06425882 8.23891264 10.77260364 8.25278913 7 7 C4.38432933 5.26279986 2.11277792 3.32405571 0 1 C0 0.67 0 0.34 0 0 Z " fill="#858585" transform="translate(210,174)"/>
<path d="M0 0 C-0.33 1.32 -0.66 2.64 -1 4 C-5.455 4.495 -5.455 4.495 -10 5 C-8 1 -8 1 -6.125 0.25 C-4 0 -4 0 0 0 Z " fill="#454545" transform="translate(132,169)"/>
<path d="M0 0 C3.94120709 0.56302958 6.7508723 1.6791945 10 4 C10 4.66 10 5.32 10 6 C10.99 6 11.98 6 13 6 C13 6.66 13 7.32 13 8 C8.27626146 6.37621488 4.05818166 3.89006982 0 1 C0 0.67 0 0.34 0 0 Z " fill="#F8C67A" transform="translate(96,227)"/>
<path d="M0 0 C4.92210994 0.49221099 8.84319544 1.22879696 13 4 C13.875 6.6875 13.875 6.6875 14 9 C13.175 8.236875 12.35 7.47375 11.5 6.6875 C7.95583932 3.70294364 4.37889283 2.43446489 0 1 C0 0.67 0 0.34 0 0 Z " fill="#F9CB87" transform="translate(238,63)"/>
<path d="M0 0 C0.66 0 1.32 0 2 0 C1.55530671 5.03985731 -0.71343362 7.37634988 -4 11 C-4 7.07620945 -2.39593058 5.99491322 0 3 C0 2.01 0 1.02 0 0 Z " fill="#8A8A8A" transform="translate(127,180)"/>
<path d="M0 0 C0.66 0.33 1.32 0.66 2 1 C1.67 1.66 1.34 2.32 1 3 C2.98 3.66 4.96 4.32 7 5 C4 6 4 6 0.8125 4.5625 C-0.115625 4.046875 -1.04375 3.53125 -2 3 C-2 2.34 -2 1.68 -2 1 C-1.34 0.67 -0.68 0.34 0 0 Z " fill="#959595" transform="translate(143,176)"/>
<path d="M0 0 C0.928125 0.0825 1.85625 0.165 2.8125 0.25 C1.28308649 3.30882701 -1.12969546 3.93951234 -4.1875 5.25 C-4.8475 4.92 -5.5075 4.59 -6.1875 4.25 C-4.36434338 1.00883268 -3.82500054 0.30000004 0 0 Z " fill="#8B8B8B" transform="translate(123.1875,190.75)"/>
<path d="M0 0 C3.37462715 0.54723683 5.08235 1.0549 8 3 C8 3.66 8 4.32 8 5 C4.62496331 3.8141763 2.35277269 2.72426311 0 0 Z " fill="#F8C272" transform="translate(128,246)"/>
</svg>
